<svg width="32" height="32" viewBox="0 0 32 32" fill="none" xmlns="http://www.w3.org/2000/svg">
<g id="brain_6771743 1" clip-path="url(#clip0_7_5440)">
<g id="Group">
<path id="Vector" d="M32 16.0001C32 13.7249 30.5971 11.6904 28.5226 10.8589C28.5734 10.5772 28.5992 10.2898 28.5992 9.99918C28.5992 8.04275 27.4286 6.31193 25.6481 5.57575C25.1968 3.14156 23.0729 1.35168 20.5549 1.35168C18.5907 1.35168 16.8785 2.45118 16.0008 4.06718C15.1228 2.45118 13.4099 1.35168 11.4451 1.35168C8.929 1.35168 6.80519 3.14168 6.35225 5.57562C4.57163 6.31175 3.40081 8.04268 3.40081 9.99918C3.40081 10.2868 3.42625 10.5759 3.47744 10.8589C1.40287 11.6904 0 13.7249 0 16.0001C0 18.2745 1.40269 20.3094 3.47725 21.1424C3.36413 21.7672 3.37694 22.4162 3.51306 23.0362C3.84512 24.5512 4.89388 25.8216 6.35225 26.4244C6.80519 28.8584 8.92906 30.6484 11.4451 30.6484C13.4099 30.6484 15.1228 29.5492 16.0008 27.9338C16.8785 29.5493 18.5907 30.6484 20.5549 30.6484C23.0729 30.6484 25.1969 28.8585 25.6481 26.4243C27.4285 25.6881 28.5992 23.9572 28.5992 22.0009C28.5992 21.7103 28.5736 21.4232 28.5228 21.1424C30.5973 20.3094 32 18.2745 32 16.0001ZM11.4451 29.3984C9.43538 29.3984 7.75556 27.8939 7.53731 25.8987C7.52231 25.7561 7.51419 25.6129 7.51419 25.4694C7.51419 23.302 9.27756 21.5386 11.4451 21.5386C11.7902 21.5386 12.0701 21.2588 12.0701 20.9136C12.0701 20.5684 11.7902 20.2886 11.4451 20.2886C8.75131 20.2886 6.53212 22.3553 6.2875 24.9862C5.61619 24.5601 5.11087 23.922 4.85006 23.1761C4.62169 22.5228 4.58631 21.7989 4.75944 21.128C4.97319 20.2844 5.49344 19.541 6.23887 19.0487C6.52688 18.8586 6.60619 18.4709 6.416 18.1828C6.22587 17.8948 5.83825 17.8153 5.55006 18.0057C4.80731 18.4961 4.23019 19.1711 3.86169 19.9486C2.3 19.2837 1.25 17.7317 1.25 16.0001C1.25 14.2676 2.30031 12.7159 3.86231 12.0527C4.23069 12.8297 4.80737 13.5047 5.5495 13.996C5.65569 14.0663 5.77544 14.0999 5.89394 14.0999C6.09656 14.0999 6.29544 14.0014 6.41569 13.8198C6.60619 13.532 6.52731 13.1442 6.2395 12.9537C5.54375 12.4932 5.04431 11.8144 4.80694 11.0404C4.70375 10.7038 4.65088 10.3514 4.65088 9.99931C4.65088 8.76375 5.28281 7.6505 6.28737 7.01318C6.53081 9.64437 8.7505 11.7116 11.4451 11.7116C11.7902 11.7116 12.0701 11.4318 12.0701 11.0866C12.0701 10.7414 11.7902 10.4616 11.4451 10.4616C9.27762 10.4616 7.51425 8.69906 7.51425 6.53256C7.51425 6.38706 7.522 6.243 7.53725 6.10437C7.53737 6.103 7.53737 6.10162 7.5375 6.10025C7.75631 4.10562 9.43581 2.60168 11.4451 2.60168C13.6126 2.60168 15.3759 4.36506 15.3759 6.5325V25.4694C15.3759 27.6359 13.6126 29.3984 11.4451 29.3984ZM27.611 20.1334C27.4471 20.179 27.3089 20.2894 27.2282 20.4391C27.1475 20.5888 27.1312 20.765 27.1834 20.9269C27.2934 21.2691 27.3491 21.6304 27.3491 22.0009C27.3491 23.5456 26.3621 24.8998 24.8932 25.3707C24.6579 25.4462 24.4893 25.653 24.4626 25.8985C24.2463 27.8937 22.5662 29.3984 20.5549 29.3984C18.3884 29.3984 16.6259 27.6359 16.6259 25.4694V19.5579H19.4341L20.2872 21.0362C19.9194 21.4265 19.6932 21.9519 19.6932 22.5295C19.6932 23.7298 20.6697 24.7063 21.87 24.7063C23.0713 24.7063 24.0486 23.7297 24.0486 22.5295C24.0486 21.3282 23.0713 20.3509 21.87 20.3509C21.6975 20.3509 21.5299 20.3717 21.3689 20.4098L20.3363 18.6205C20.2247 18.4271 20.0183 18.3079 19.795 18.3079H16.6259V16.6251H23.6041C23.8734 17.5226 24.7068 18.1787 25.6909 18.1787C26.8912 18.1787 27.8677 17.2014 27.8677 16.0001C27.8677 14.7997 26.8912 13.8232 25.6909 13.8232C24.707 13.8232 23.8738 14.4785 23.6042 15.3751H16.6259V13.6922H19.7951C20.0184 13.6922 20.2247 13.5731 20.3364 13.3796L21.3689 11.5904C21.5299 11.6285 21.6976 11.6492 21.8701 11.6492C23.0714 11.6492 24.0486 10.6727 24.0486 9.47243C24.0486 8.27112 23.0713 7.29381 21.8701 7.29381C20.6698 7.29381 19.6933 8.27112 19.6933 9.47243C19.6933 10.0494 19.9193 10.5743 20.2871 10.9643L19.4342 12.4422H16.6259V6.5325C16.6259 4.36506 18.3885 2.60168 20.5549 2.60168C22.5664 2.60168 24.2463 4.10631 24.4627 6.10162C24.4893 6.34718 24.658 6.554 24.8932 6.62937C26.3622 7.10031 27.3492 8.45456 27.3492 9.99918C27.3492 10.3693 27.2933 10.7315 27.1831 11.0757C27.1313 11.2377 27.1478 11.4138 27.2286 11.5634C27.3094 11.7131 27.4477 11.8232 27.6116 11.8686C29.4594 12.3805 30.75 14.0794 30.75 16.0001C30.75 17.9202 29.4592 19.6199 27.611 20.1334ZM20.9433 22.5295C20.9433 22.0174 21.359 21.6009 21.8701 21.6009C22.3821 21.6009 22.7986 22.0174 22.7986 22.5295C22.7986 23.0406 22.3821 23.4563 21.8701 23.4563C21.359 23.4563 20.9433 23.0405 20.9433 22.5295ZM24.7623 16.0001C24.7623 15.489 25.1789 15.0732 25.6909 15.0732C26.2019 15.0732 26.6177 15.489 26.6177 16.0001C26.6177 16.5121 26.2019 16.9287 25.6909 16.9287C25.1789 16.9287 24.7623 16.5121 24.7623 16.0001ZM20.9433 9.47243C20.9433 8.96037 21.359 8.54381 21.8701 8.54381C22.3821 8.54381 22.7986 8.96037 22.7986 9.47243C22.7986 9.9835 22.3821 10.3992 21.8701 10.3992C21.359 10.3992 20.9433 9.9835 20.9433 9.47243Z" fill="white"/>
</g>
</g>
<defs>
<clipPath id="clip0_7_5440">
<rect width="32" height="32" fill="white"/>
</clipPath>
</defs>
</svg>
